<mxfile host="app.diagrams.net" modified="2024-03-20T01:41:03.534Z" agent="Mozilla/5.0 (Macintosh; Intel Mac OS X 10_15_7) AppleWebKit/537.36 (KHTML, like Gecko) Chrome/122.0.0.0 Safari/537.36" etag="6bFZzxfgRgVnt3VCJM_i" version="24.0.7" type="github">
  <diagram name="第 1 页" id="gx0CAf-HGfpb9z3jjFb8">
    <mxGraphModel dx="2074" dy="3484" grid="1" gridSize="10" guides="1" tooltips="1" connect="1" arrows="1" fold="1" page="1" pageScale="1" pageWidth="827" pageHeight="1169" math="0" shadow="0">
      <root>
        <mxCell id="0" />
        <mxCell id="1" parent="0" />
        <mxCell id="n2puXXDJKAa573vDvbuu-2" style="edgeStyle=orthogonalEdgeStyle;rounded=0;orthogonalLoop=1;jettySize=auto;html=1;exitX=0.5;exitY=1;exitDx=0;exitDy=0;entryX=0.5;entryY=0;entryDx=0;entryDy=0;endArrow=none;endFill=0;fontSize=15;" parent="1" source="n2puXXDJKAa573vDvbuu-6" target="n2puXXDJKAa573vDvbuu-7" edge="1">
          <mxGeometry relative="1" as="geometry" />
        </mxCell>
        <mxCell id="n2puXXDJKAa573vDvbuu-3" style="edgeStyle=orthogonalEdgeStyle;rounded=0;orthogonalLoop=1;jettySize=auto;html=1;exitX=0.5;exitY=1;exitDx=0;exitDy=0;entryX=0.5;entryY=0;entryDx=0;entryDy=0;endArrow=none;endFill=0;fontSize=15;" parent="1" source="n2puXXDJKAa573vDvbuu-6" target="n2puXXDJKAa573vDvbuu-8" edge="1">
          <mxGeometry relative="1" as="geometry" />
        </mxCell>
        <mxCell id="n2puXXDJKAa573vDvbuu-4" style="edgeStyle=orthogonalEdgeStyle;rounded=0;orthogonalLoop=1;jettySize=auto;html=1;exitX=0.5;exitY=1;exitDx=0;exitDy=0;entryX=0.5;entryY=0;entryDx=0;entryDy=0;endArrow=none;endFill=0;fontSize=15;" parent="1" source="n2puXXDJKAa573vDvbuu-6" target="n2puXXDJKAa573vDvbuu-9" edge="1">
          <mxGeometry relative="1" as="geometry" />
        </mxCell>
        <mxCell id="n2puXXDJKAa573vDvbuu-6" value="用户模块" style="rounded=0;whiteSpace=wrap;html=1;fontSize=15;" parent="1" vertex="1">
          <mxGeometry x="401" y="-2130" width="125" height="40" as="geometry" />
        </mxCell>
        <mxCell id="n2puXXDJKAa573vDvbuu-20" style="edgeStyle=orthogonalEdgeStyle;rounded=0;orthogonalLoop=1;jettySize=auto;html=1;exitX=0.5;exitY=1;exitDx=0;exitDy=0;entryX=0.5;entryY=0;entryDx=0;entryDy=0;endArrow=none;endFill=0;fontSize=15;" parent="1" source="n2puXXDJKAa573vDvbuu-7" target="n2puXXDJKAa573vDvbuu-14" edge="1">
          <mxGeometry relative="1" as="geometry" />
        </mxCell>
        <mxCell id="n2puXXDJKAa573vDvbuu-21" style="edgeStyle=orthogonalEdgeStyle;rounded=0;orthogonalLoop=1;jettySize=auto;html=1;exitX=0.5;exitY=1;exitDx=0;exitDy=0;entryX=0.5;entryY=0;entryDx=0;entryDy=0;endArrow=none;endFill=0;fontSize=15;" parent="1" source="n2puXXDJKAa573vDvbuu-7" target="n2puXXDJKAa573vDvbuu-15" edge="1">
          <mxGeometry relative="1" as="geometry" />
        </mxCell>
        <mxCell id="n2puXXDJKAa573vDvbuu-22" style="edgeStyle=orthogonalEdgeStyle;rounded=0;orthogonalLoop=1;jettySize=auto;html=1;exitX=0.5;exitY=1;exitDx=0;exitDy=0;entryX=0.5;entryY=0;entryDx=0;entryDy=0;endArrow=none;endFill=0;fontSize=15;" parent="1" source="n2puXXDJKAa573vDvbuu-7" target="n2puXXDJKAa573vDvbuu-16" edge="1">
          <mxGeometry relative="1" as="geometry">
            <Array as="points">
              <mxPoint x="153" y="-1805" />
              <mxPoint x="187" y="-1805" />
            </Array>
          </mxGeometry>
        </mxCell>
        <mxCell id="n2puXXDJKAa573vDvbuu-23" style="edgeStyle=orthogonalEdgeStyle;rounded=0;orthogonalLoop=1;jettySize=auto;html=1;exitX=0.5;exitY=1;exitDx=0;exitDy=0;entryX=0.5;entryY=0;entryDx=0;entryDy=0;endArrow=none;endFill=0;fontSize=15;" parent="1" source="n2puXXDJKAa573vDvbuu-7" target="n2puXXDJKAa573vDvbuu-17" edge="1">
          <mxGeometry relative="1" as="geometry" />
        </mxCell>
        <mxCell id="n2puXXDJKAa573vDvbuu-7" value="数据源管理" style="rounded=0;whiteSpace=wrap;html=1;verticalAlign=middle;align=center;labelPosition=center;verticalLabelPosition=middle;textDirection=vertical-rl;fontSize=15;" parent="1" vertex="1">
          <mxGeometry x="135" y="-1950" width="35" height="120" as="geometry" />
        </mxCell>
        <mxCell id="n2puXXDJKAa573vDvbuu-47" style="edgeStyle=orthogonalEdgeStyle;rounded=0;orthogonalLoop=1;jettySize=auto;html=1;exitX=0.5;exitY=1;exitDx=0;exitDy=0;entryX=0.75;entryY=0;entryDx=0;entryDy=0;endArrow=none;endFill=0;fontSize=15;" parent="1" source="n2puXXDJKAa573vDvbuu-8" target="n2puXXDJKAa573vDvbuu-40" edge="1">
          <mxGeometry relative="1" as="geometry" />
        </mxCell>
        <mxCell id="n2puXXDJKAa573vDvbuu-49" style="edgeStyle=orthogonalEdgeStyle;rounded=0;orthogonalLoop=1;jettySize=auto;html=1;exitX=0.5;exitY=1;exitDx=0;exitDy=0;entryX=0.5;entryY=0;entryDx=0;entryDy=0;endArrow=none;endFill=0;fontSize=15;" parent="1" source="n2puXXDJKAa573vDvbuu-8" target="n2puXXDJKAa573vDvbuu-41" edge="1">
          <mxGeometry relative="1" as="geometry" />
        </mxCell>
        <mxCell id="n2puXXDJKAa573vDvbuu-50" style="edgeStyle=orthogonalEdgeStyle;rounded=0;orthogonalLoop=1;jettySize=auto;html=1;exitX=0.5;exitY=1;exitDx=0;exitDy=0;entryX=0.5;entryY=0;entryDx=0;entryDy=0;endArrow=none;endFill=0;fontSize=15;" parent="1" source="n2puXXDJKAa573vDvbuu-8" target="n2puXXDJKAa573vDvbuu-42" edge="1">
          <mxGeometry relative="1" as="geometry" />
        </mxCell>
        <mxCell id="n2puXXDJKAa573vDvbuu-52" style="edgeStyle=orthogonalEdgeStyle;rounded=0;orthogonalLoop=1;jettySize=auto;html=1;exitX=0.5;exitY=1;exitDx=0;exitDy=0;entryX=0.5;entryY=0;entryDx=0;entryDy=0;endArrow=none;endFill=0;fontSize=15;" parent="1" source="n2puXXDJKAa573vDvbuu-8" target="n2puXXDJKAa573vDvbuu-44" edge="1">
          <mxGeometry relative="1" as="geometry" />
        </mxCell>
        <mxCell id="n2puXXDJKAa573vDvbuu-8" value="活动页面管理" style="rounded=0;whiteSpace=wrap;html=1;verticalAlign=middle;align=center;labelPosition=center;verticalLabelPosition=middle;textDirection=vertical-rl;strokeWidth=1;fontSize=15;" parent="1" vertex="1">
          <mxGeometry x="446" y="-1950" width="35" height="120" as="geometry" />
        </mxCell>
        <mxCell id="n2puXXDJKAa573vDvbuu-57" style="edgeStyle=orthogonalEdgeStyle;rounded=0;orthogonalLoop=1;jettySize=auto;html=1;exitX=0.5;exitY=1;exitDx=0;exitDy=0;endArrow=none;endFill=0;fontSize=15;" parent="1" source="n2puXXDJKAa573vDvbuu-9" target="n2puXXDJKAa573vDvbuu-55" edge="1">
          <mxGeometry relative="1" as="geometry" />
        </mxCell>
        <mxCell id="n2puXXDJKAa573vDvbuu-58" style="edgeStyle=orthogonalEdgeStyle;rounded=0;orthogonalLoop=1;jettySize=auto;html=1;exitX=0.5;exitY=1;exitDx=0;exitDy=0;entryX=0.5;entryY=0;entryDx=0;entryDy=0;endArrow=none;endFill=0;fontSize=15;" parent="1" source="n2puXXDJKAa573vDvbuu-9" target="n2puXXDJKAa573vDvbuu-56" edge="1">
          <mxGeometry relative="1" as="geometry" />
        </mxCell>
        <mxCell id="n2puXXDJKAa573vDvbuu-9" value="模版库" style="rounded=0;whiteSpace=wrap;html=1;verticalAlign=middle;align=center;labelPosition=center;verticalLabelPosition=middle;textDirection=vertical-rl;spacing=0;fontSize=15;" parent="1" vertex="1">
          <mxGeometry x="730" y="-1950" width="33" height="120" as="geometry" />
        </mxCell>
        <mxCell id="n2puXXDJKAa573vDvbuu-26" style="edgeStyle=orthogonalEdgeStyle;rounded=0;orthogonalLoop=1;jettySize=auto;html=1;exitX=0.5;exitY=1;exitDx=0;exitDy=0;entryX=0.25;entryY=0;entryDx=0;entryDy=0;endArrow=none;endFill=0;fontSize=15;" parent="1" source="n2puXXDJKAa573vDvbuu-14" target="n2puXXDJKAa573vDvbuu-24" edge="1">
          <mxGeometry relative="1" as="geometry">
            <Array as="points">
              <mxPoint x="70" y="-1640" />
              <mxPoint x="38" y="-1640" />
            </Array>
          </mxGeometry>
        </mxCell>
        <mxCell id="n2puXXDJKAa573vDvbuu-27" style="edgeStyle=orthogonalEdgeStyle;rounded=0;orthogonalLoop=1;jettySize=auto;html=1;exitX=0.5;exitY=1;exitDx=0;exitDy=0;endArrow=none;endFill=0;fontSize=15;" parent="1" source="n2puXXDJKAa573vDvbuu-14" target="n2puXXDJKAa573vDvbuu-25" edge="1">
          <mxGeometry relative="1" as="geometry" />
        </mxCell>
        <mxCell id="n2puXXDJKAa573vDvbuu-14" value="新增数据源" style="rounded=0;whiteSpace=wrap;html=1;verticalAlign=middle;align=center;labelPosition=center;verticalLabelPosition=middle;textDirection=vertical-rl;spacing=0;fontSize=15;" parent="1" vertex="1">
          <mxGeometry x="53" y="-1780" width="33" height="120" as="geometry" />
        </mxCell>
        <mxCell id="n2puXXDJKAa573vDvbuu-15" value="编辑数据源" style="rounded=0;whiteSpace=wrap;html=1;verticalAlign=middle;align=center;labelPosition=center;verticalLabelPosition=middle;textDirection=vertical-rl;spacing=0;fontSize=15;" parent="1" vertex="1">
          <mxGeometry x="113" y="-1780" width="33" height="120" as="geometry" />
        </mxCell>
        <mxCell id="n2puXXDJKAa573vDvbuu-16" value="查看数据源" style="rounded=0;whiteSpace=wrap;html=1;verticalAlign=middle;align=center;labelPosition=center;verticalLabelPosition=middle;textDirection=vertical-rl;spacing=0;fontSize=15;" parent="1" vertex="1">
          <mxGeometry x="170" y="-1780" width="33" height="120" as="geometry" />
        </mxCell>
        <mxCell id="n2puXXDJKAa573vDvbuu-17" value="删除数据源" style="rounded=0;whiteSpace=wrap;html=1;verticalAlign=middle;align=center;labelPosition=center;verticalLabelPosition=middle;textDirection=vertical-rl;spacing=0;fontSize=15;" parent="1" vertex="1">
          <mxGeometry x="223" y="-1780" width="33" height="120" as="geometry" />
        </mxCell>
        <mxCell id="n2puXXDJKAa573vDvbuu-24" value="静态数据源编写" style="rounded=0;whiteSpace=wrap;html=1;verticalAlign=middle;align=center;labelPosition=center;verticalLabelPosition=middle;textDirection=vertical-rl;spacing=0;fontSize=15;" parent="1" vertex="1">
          <mxGeometry x="30" y="-1620" width="33" height="120" as="geometry" />
        </mxCell>
        <mxCell id="n2puXXDJKAa573vDvbuu-25" value="动态数据源调试" style="rounded=0;whiteSpace=wrap;html=1;verticalAlign=middle;align=center;labelPosition=center;verticalLabelPosition=middle;textDirection=vertical-rl;spacing=0;fontSize=15;" parent="1" vertex="1">
          <mxGeometry x="86" y="-1620" width="33" height="120" as="geometry" />
        </mxCell>
        <mxCell id="n2puXXDJKAa573vDvbuu-53" style="edgeStyle=orthogonalEdgeStyle;rounded=0;orthogonalLoop=1;jettySize=auto;html=1;exitX=0.5;exitY=1;exitDx=0;exitDy=0;entryX=0.5;entryY=0;entryDx=0;entryDy=0;endArrow=none;endFill=0;fontSize=15;" parent="1" source="n2puXXDJKAa573vDvbuu-40" target="n2puXXDJKAa573vDvbuu-45" edge="1">
          <mxGeometry relative="1" as="geometry" />
        </mxCell>
        <mxCell id="n2puXXDJKAa573vDvbuu-54" style="edgeStyle=orthogonalEdgeStyle;rounded=0;orthogonalLoop=1;jettySize=auto;html=1;exitX=0.5;exitY=1;exitDx=0;exitDy=0;entryX=0.5;entryY=0;entryDx=0;entryDy=0;endArrow=none;endFill=0;fontSize=15;" parent="1" source="n2puXXDJKAa573vDvbuu-40" target="n2puXXDJKAa573vDvbuu-46" edge="1">
          <mxGeometry relative="1" as="geometry" />
        </mxCell>
        <mxCell id="n2puXXDJKAa573vDvbuu-40" value="新增活动页面" style="rounded=0;whiteSpace=wrap;html=1;verticalAlign=middle;align=center;labelPosition=center;verticalLabelPosition=middle;textDirection=vertical-rl;spacing=0;fontSize=15;" parent="1" vertex="1">
          <mxGeometry x="351" y="-1780" width="33" height="120" as="geometry" />
        </mxCell>
        <mxCell id="n2puXXDJKAa573vDvbuu-41" value="编辑活动页面" style="rounded=0;whiteSpace=wrap;html=1;verticalAlign=middle;align=center;labelPosition=center;verticalLabelPosition=middle;textDirection=vertical-rl;spacing=0;fontSize=15;" parent="1" vertex="1">
          <mxGeometry x="416" y="-1780" width="33" height="120" as="geometry" />
        </mxCell>
        <mxCell id="n2puXXDJKAa573vDvbuu-42" value="查看活动页面" style="rounded=0;whiteSpace=wrap;html=1;verticalAlign=middle;align=center;labelPosition=center;verticalLabelPosition=middle;textDirection=vertical-rl;spacing=0;fontSize=15;" parent="1" vertex="1">
          <mxGeometry x="471" y="-1780" width="33" height="120" as="geometry" />
        </mxCell>
        <mxCell id="n2puXXDJKAa573vDvbuu-44" value="删除活动页面" style="rounded=0;whiteSpace=wrap;html=1;verticalAlign=middle;align=center;labelPosition=center;verticalLabelPosition=middle;textDirection=vertical-rl;spacing=0;fontSize=15;" parent="1" vertex="1">
          <mxGeometry x="536" y="-1780" width="33" height="120" as="geometry" />
        </mxCell>
        <mxCell id="n2puXXDJKAa573vDvbuu-45" value="配置协同设计人员" style="rounded=0;whiteSpace=wrap;html=1;verticalAlign=middle;align=center;labelPosition=center;verticalLabelPosition=middle;textDirection=vertical-rl;spacing=0;fontSize=15;" parent="1" vertex="1">
          <mxGeometry x="323" y="-1620" width="33" height="130" as="geometry" />
        </mxCell>
        <mxCell id="n2puXXDJKAa573vDvbuu-46" value="配置可查看人员" style="rounded=0;whiteSpace=wrap;html=1;verticalAlign=middle;align=center;labelPosition=center;verticalLabelPosition=middle;textDirection=vertical-rl;spacing=0;fontSize=15;" parent="1" vertex="1">
          <mxGeometry x="383" y="-1620" width="33" height="130" as="geometry" />
        </mxCell>
        <mxCell id="n2puXXDJKAa573vDvbuu-55" value="模版展示" style="rounded=0;whiteSpace=wrap;html=1;verticalAlign=middle;align=center;labelPosition=center;verticalLabelPosition=middle;textDirection=vertical-rl;spacing=0;fontSize=15;" parent="1" vertex="1">
          <mxGeometry x="670" y="-1780" width="33" height="120" as="geometry" />
        </mxCell>
        <mxCell id="n2puXXDJKAa573vDvbuu-56" value="模版应用" style="rounded=0;whiteSpace=wrap;html=1;verticalAlign=middle;align=center;labelPosition=center;verticalLabelPosition=middle;textDirection=vertical-rl;spacing=0;fontSize=15;" parent="1" vertex="1">
          <mxGeometry x="794" y="-1780" width="33" height="120" as="geometry" />
        </mxCell>
        <mxCell id="pmthkhrQVclEZDeeYs1u-1" value="模版预览" style="rounded=0;whiteSpace=wrap;html=1;verticalAlign=middle;align=center;labelPosition=center;verticalLabelPosition=middle;textDirection=vertical-rl;spacing=0;fontSize=15;" vertex="1" parent="1">
          <mxGeometry x="730" y="-1780" width="33" height="120" as="geometry" />
        </mxCell>
      </root>
    </mxGraphModel>
  </diagram>
</mxfile>
